<?xml version="1.0" standalone="no"?>
<!DOCTYPE svg PUBLIC "-//W3C//DTD SVG 20010904//EN"
 "http://www.w3.org/TR/2001/REC-SVG-20010904/DTD/svg10.dtd">
<svg version="1.0" xmlns="http://www.w3.org/2000/svg"
 width="300.000000pt" height="300.000000pt" viewBox="0 0 300.000000 300.000000"
 preserveAspectRatio="xMidYMid meet">
<metadata>
Created by potrace 1.11, written by Peter Selinger 2001-2013
</metadata>
<g transform="translate(0.000000,300.000000) scale(0.100000,-0.100000)"
fill="#000000" stroke="none">
<path d="M1085 2985 c-254 -56 -434 -203 -559 -455 -62 -124 -131 -330 -156
-467 -5 -32 -12 -67 -14 -79 -39 -201 -41 -520 -5 -754 5 -36 17 -94 25 -130
9 -36 17 -72 19 -81 11 -52 71 -212 109 -291 159 -329 398 -534 723 -619 104
-27 336 -34 448 -14 380 69 687 301 826 624 66 154 93 302 90 491 -1 116 -2
125 -27 281 -2 14 -15 70 -29 123 -120 463 -437 940 -803 1209 -66 49 -243
140 -292 150 -14 3 -36 8 -50 12 -50 13 -245 13 -305 0z m260 -230 c83 -19
142 -45 226 -101 90 -60 94 -65 73 -106 -9 -18 -25 -44 -34 -58 -15 -22 -215
-360 -244 -414 -7 -12 -22 -37 -34 -56 -12 -19 -22 -39 -22 -43 0 -4 42 -27
93 -51 50 -24 129 -62 174 -83 l82 -39 -96 -140 c-52 -76 -97 -143 -99 -149
-2 -5 27 -30 63 -55 37 -25 80 -53 94 -63 l27 -18 74 108 c100 146 263 385
272 400 7 12 -45 39 -287 150 l-77 36 17 26 c9 14 23 37 31 51 48 88 150 254
158 257 5 2 35 -27 65 -64 253 -309 412 -669 455 -1028 6 -52 5 -208 -2 -265
-33 -276 -199 -512 -450 -638 -59 -30 -167 -70 -209 -78 -11 -2 -42 -8 -70
-13 -81 -15 -270 -6 -358 18 -85 22 -124 39 -207 87 -241 141 -416 446 -480
840 -33 200 -32 461 1 664 56 339 183 619 332 729 52 38 133 79 172 87 11 3
35 8 53 12 63 14 141 13 207 -3z"/>
</g>
</svg>
