<?xml version="1.0" encoding="UTF-8"?>
<svg width="13px" height="16px" viewBox="0 0 13 16" version="1.1" xmlns="http://www.w3.org/2000/svg" xmlns:xlink="http://www.w3.org/1999/xlink">
    <!-- Generator: Sketch 47 (45396) - http://www.bohemiancoding.com/sketch -->
    <title>logo_sovsemskoro</title>
    <desc>Created with Sketch.</desc>
    <defs></defs>
    <g id="Symbols" stroke="none" stroke-width="1" fill="none" fill-rule="evenodd">
        <g id="Footer/Laptop-Without-Terms-of-use" transform="translate(-858.000000, -10.000000)" fill="#FFFFFF">
            <g id="made-in" transform="translate(776.000000, 0.000000)">
                <path d="M92.901824,21.145996 C92.7279172,21.7494618 92.4369402,22.2879389 92.0368186,22.7467088 C91.2177808,23.6859868 90.1732076,24.057124 89.6234084,24.1948002 C89.0736092,24.3324764 87.9771809,24.4977785 86.8119146,24.0555389 C86.2428678,23.8397404 85.7324694,23.5021166 85.2943057,23.0517251 C84.7820957,22.5257022 84.3631795,21.8391325 84.049332,21.0112635 C83.7132933,20.1251991 83.5115342,19.0785879 83.4662459,17.9841976 C83.4191462,16.8479157 83.5441417,15.6930656 83.8278725,14.6444165 C84.0930352,13.6634732 84.3738222,12.9952453 84.738619,12.4778271 C85.1693101,11.8664359 85.6966917,11.4998276 86.3986594,11.3241093 C86.6414043,11.2631966 86.8746388,11.2351179 87.0999478,11.2351179 C87.9615565,11.2351179 88.70451,11.6467879 89.3781726,12.2169669 L87.4568191,15.483834 L89.347603,16.3762387 L88.2720074,17.9543074 L89.2916721,18.6494818 L91.1815503,15.8771623 L89.205398,14.9446775 L90.2884662,13.1032577 C91.0090021,13.8822154 91.6432638,14.8174175 92.1246778,15.8151174 L92.1246778,15.814891 C92.6006572,16.8014953 92.9160898,17.8195749 93.0376887,18.7595323 C93.1511357,19.6372183 93.1053946,20.4401788 92.901824,21.145996 M94.2613769,18.6014763 C94.1232478,17.5317681 93.7688673,16.3830319 93.2360512,15.2789047 L93.2360512,15.2786782 C92.6878371,14.1426228 91.9596022,13.0760848 91.1301481,12.1947756 C89.9503895,10.9405179 88.3129932,9.5719073 86.0988512,10.1271411 C85.1072653,10.3755471 84.3323835,10.9119863 83.7298235,11.7668018 C83.2780733,12.4076304 82.9411288,13.1956457 82.6365654,14.3221906 C82.3204535,15.4908536 82.1809657,16.7750016 82.2332736,18.0353733 C82.2842229,19.2604202 82.513155,20.4406317 82.8956141,21.4489743 C83.269695,22.4355786 83.7791877,23.2643533 84.4098264,23.912428 C84.9745707,24.4925704 85.6355526,24.929149 86.3742037,25.2092567 C87.1024386,25.485515 87.8062178,25.5760915 88.4155711,25.5760915 C89.0443983,25.5760915 89.5726856,25.479854 89.9232165,25.3919948 C90.6134093,25.2189937 91.9263153,24.7509398 92.9668126,23.5575947 C93.4862687,22.9620543 93.8632933,22.2657477 94.0876965,21.4879222 C94.3383669,20.6186144 94.3967888,19.6476346 94.2613769,18.6014763" id="logo_sovsemskoro"></path>
            </g>
        </g>
    </g>
</svg>